<?xml version="1.0" encoding="UTF-8" standalone="no"?>
<!-- Generator: Adobe Illustrator 16.0.0, SVG Export Plug-In . SVG Version: 6.00 Build 0)  -->

<svg
   version="1.1"
   id="Layer_1"
   x="0px"
   y="0px"
   width="205.05588"
   height="98.572594"
   viewBox="0 0 205.05588 98.572594"
   enable-background="new 0 0 500 500"
   xml:space="preserve"
   sodipodi:docname="multi.svg"
   inkscape:version="1.3.2 (091e20ef0f, 2023-11-25)"
   inkscape:export-filename="multi.png"
   inkscape:export-xdpi="187.26602"
   inkscape:export-ydpi="187.26602"
   xmlns:inkscape="http://www.inkscape.org/namespaces/inkscape"
   xmlns:sodipodi="http://sodipodi.sourceforge.net/DTD/sodipodi-0.dtd"
   xmlns="http://www.w3.org/2000/svg"
   xmlns:svg="http://www.w3.org/2000/svg"><defs
   id="defs196">
	
	

		
	
	
	

	
	

	
	

	
	

	
	

	
	

	

	

	

	

	

	

	
</defs><sodipodi:namedview
   id="namedview196"
   pagecolor="#ffffff"
   bordercolor="#666666"
   borderopacity="1.0"
   inkscape:showpageshadow="2"
   inkscape:pageopacity="0.0"
   inkscape:pagecheckerboard="0"
   inkscape:deskcolor="#d1d1d1"
   inkscape:zoom="5.510693"
   inkscape:cx="102.52794"
   inkscape:cy="49.358583"
   inkscape:window-width="1920"
   inkscape:window-height="1004"
   inkscape:window-x="0"
   inkscape:window-y="0"
   inkscape:window-maximized="1"
   inkscape:current-layer="Layer_1" />





















































<path
   fill="#a5d2b8"
   d="m 67.3755,18.15847 c 3.889,1.8 10.111,0.598 14.39,0 5.833,-0.601 11.666,-1.799 17.501,-1.799 8.167,0 17.111,-1.202 24.891,0.598 8.167,1.799 22.167,5.998 24.89,19.792 1.944,10.795 -3.111,14.394 -8.557,19.193 -5.055,4.195 -10.89,10.193 -16.333,13.792 -8.558,5.398 -20.614,4.797 -29.558,5.999 -7.389,0.598 -14.779,-0.601 -21.779,-1.202 -4.666,0 -7.391,-3.599 -11.278,-6.596 -3.89,-3.598 -13.223,-10.194 -15.557,-16.793 -3.889,-12.596 18.668,-32.387 25.279,-31.785"
   id="path103"
   style="fill:#a995ff;fill-opacity:1" /><path
   d="m 66.7095,20.56947 c 4.654,1.712 9.601,0.891 14.382,0.193 7.234,-1.056 14.41,-1.782 21.716,-1.965 10.963,-0.273 21.429,-0.627 31.592,4.089 8.941,4.149 16.481,15.209 10.704,24.889 -2.268,3.801 -6.751,6.653 -9.991,9.54 -4.699,4.187 -9.206,8.854 -14.884,11.708 -5.55,2.788 -12.38,3.046 -18.442,3.524 -6.143,0.485 -12.048,0.994 -18.223,0.534 -3.001,-0.224 -5.993,-0.589 -8.986,-0.89 -4.475,-0.449 -6.721,-2.188 -10.012,-5.009 -3.573,-3.063 -7.249,-6.01 -10.646,-9.274 -3.521,-3.385 -6.603,-7.165 -5.613,-12.255 0.79,-4.061 3.361,-7.807 5.887,-10.986 3.431,-4.319 10.869,-12.956 17.07,-12.811 3.227,0.075 3.219,-4.925 0,-5 -6.617,-0.154 -13.312,6.536 -17.559,10.845 -5.498,5.578 -11.291,13.503 -10.582,21.759 0.82,9.555 12.517,16.638 19.104,22.283 4.656,3.99 8.103,5.022 14.123,5.627 7.616,0.764 14.834,1.11 22.461,0.417 5.893,-0.536 11.758,-0.866 17.542,-2.193 6.262,-1.437 11.16,-4.977 15.959,-9.07 4.487,-3.827 8.92,-7.783 13.271,-11.765 3.148,-2.881 5.616,-6.521 6.164,-10.83 3.094,-24.335 -25.104,-30.978 -43.522,-30.339 -6.479,0.225 -12.913,0.286 -19.347,1.159 -6.344,0.861 -14.64,3.278 -20.838,0.997 -3.033,-1.114 -4.329,3.719 -1.33,4.823 z"
   id="path104" />
<path
   fill="#a5d2b8"
   d="m 147.1025,37.95047 c 4.277,-1.201 9.723,-12.595 12.833,-17.395 3.111,-4.797 10.11,-16.79 15.167,-17.992 5.836,-0.597 3.89,11.997 4.278,17.992 0.778,7.798 4.277,13.796 3.892,22.191 -0.78,11.993 0.386,43.181 -12.446,31.188 -9.334,-9.597 -13.614,-25.79 -21.78,-37.186"
   id="path105"
   style="fill:#a995ff;fill-opacity:1" /><g
   id="g106"
   transform="translate(-278.8125,-256.83853)">
		<path
   d="m 426.58,297.2 c 5.553,-2.206 8.636,-8.825 11.45,-13.69 3.431,-5.933 7.024,-11.935 11.351,-17.262 1.486,-1.831 4.931,-6.363 5.964,-2.214 0.822,3.295 0.343,7.084 0.296,10.444 -0.124,8.855 4.436,16.942 3.9,25.835 -0.329,5.464 -0.351,10.939 -0.756,16.401 -0.309,4.156 -0.37,10.904 -3.566,14.078 -2.877,2.858 -11.386,-12.614 -12.35,-14.427 -4.274,-8.04 -7.629,-16.529 -12.853,-24.04 -1.826,-2.627 -6.163,-0.131 -4.316,2.523 6.07,8.73 9.762,18.781 15.021,27.977 2.624,4.588 8.386,14.612 15.155,13.016 4.91,-1.158 6.231,-7.235 6.996,-11.465 1.287,-7.116 1.285,-14.44 1.557,-21.645 0.155,-4.119 0.089,-8.014 -0.706,-12.08 -1.068,-5.458 -3.101,-10.533 -3.083,-16.174 0.016,-5.176 1.613,-15.778 -5.279,-17.484 -6.423,-1.591 -12.557,9.537 -15.289,13.685 -2.223,3.372 -4.344,6.808 -6.359,10.308 -1.932,3.353 -4.616,9.864 -8.463,11.392 -2.959,1.176 -1.67,6.014 1.33,4.822 z"
   id="path106" />
	</g>
<path
   fill="#a5d2b8"
   d="m 42.4845,39.82847 c -1.945,-6.65 -17.502,-31.72 -24.113,-21.489 -3.111,4.606 1.945,13.814 0.779,19.954 -1.557,8.699 -8.946,9.208 -11.279,16.883 -1.556,5.117 -3.5,14.327 -1.167,18.931 1.944,5.628 5.833,16.372 10.501,15.86 10.889,-1.023 16.334,-18.93 21.39,-28.138 1.556,-3.072 12.057,-18.932 6.224,-19.442"
   id="path107"
   style="fill:#a995ff;fill-opacity:1" /><g
   id="g108"
   transform="translate(-278.8125,-256.83853)">
		<path
   d="m 323.708,296.002 c -2.275,-7.147 -16.575,-33.021 -26.857,-24.184 -8.489,7.297 2.95,19.696 -3.753,28.084 -2.72,3.401 -6.225,5.563 -8.139,9.635 -2.182,4.642 -2.893,10.519 -3.022,15.592 -0.118,4.597 1.979,9.054 3.719,13.208 1.615,3.858 3.674,8.382 7.575,10.403 7.668,3.975 15.475,-7.536 18.449,-12.763 4.191,-7.366 7.513,-15.217 11.65,-22.634 1.617,-2.9 8.619,-15.037 1.512,-16.423 -0.183,-0.035 -0.365,-0.07 -0.547,-0.106 -3.149,-0.613 -4.492,4.205 -1.329,4.822 -0.198,-0.039 -0.212,0.757 -0.502,1.774 -0.466,1.634 -1.256,3.173 -2.008,4.689 -1.251,2.522 -2.698,4.949 -4.12,7.378 -3.172,5.423 -5.457,11.307 -8.369,16.865 -1.752,3.343 -3.788,6.511 -6.492,9.161 -1.18,1.155 -2.594,1.968 -4.143,2.507 -2.48,0.862 -3.656,-1.188 -4.816,-3.019 -4.602,-7.262 -6.348,-15.141 -4.66,-23.512 0.814,-4.042 1.993,-7.363 4.971,-10.305 2.271,-2.243 4.504,-4.224 6.081,-7.045 4.19,-7.494 -1.316,-14.737 -0.125,-22.361 1.116,-7.146 9.973,3.006 11.423,4.779 3.47,4.242 7.004,9.514 8.682,14.782 0.973,3.063 5.801,1.755 4.82,-1.327 z"
   id="path108" />
	</g>
<path
   fill="#a5d2b8"
   d="m 43.2615,45.45647 c -3.889,0 -8.167,-2.559 -10.5,-7.163 -1.557,-3.07 -1.557,-5.629 -5.445,-7.162 -1.556,-1.023 -3.111,-1.023 -5.057,-1.023 -4.277,0 -8.166,-1.024 -10.889,3.579 -1.555,3.072 -1.555,5.63 -2.334,8.7 -1.166,3.581 -3.111,6.139 -4.277,9.72 -1.557,5.628 -5.445,14.838 1.166,14.838 4.668,0 8.945,-3.581 12.834,-6.651 8.168,-6.14 17.502,-11.768 27.225,-11.768"
   id="path109"
   style="fill:#a995ff;fill-opacity:1" /><g
   id="g110"
   transform="translate(-278.8125,-256.83853)">
		<path
   d="m 322.074,299.795 c -3.881,-0.252 -6.479,-2.674 -8.342,-5.925 -1.028,-1.796 -1.352,-3.982 -2.814,-5.538 -3.742,-3.979 -8.503,-3.868 -13.568,-3.982 -4.727,-0.106 -8.748,2.395 -10.235,7.009 -1.015,3.146 -1.237,6.428 -2.577,9.472 -1.244,2.827 -2.795,5.43 -3.654,8.42 -1.846,6.417 -5.408,17.797 5.396,16.906 6.382,-0.526 11.785,-6.427 16.732,-9.869 6.494,-4.519 13.75,-8.168 21.785,-8.423 3.216,-0.102 3.226,-5.103 0,-5 -10.214,0.323 -19.002,5.249 -27.113,11.091 -1.846,1.329 -14.067,11.217 -14.164,5.493 -0.064,-3.767 1.872,-8.714 3.365,-12.107 1.785,-4.055 3.41,-7.403 4.252,-11.8 0.708,-3.703 2.258,-6.087 6.213,-6.191 2.285,-0.061 5.451,-0.264 7.518,0.778 3.752,1.894 4.718,7.222 7.501,10.35 2.456,2.76 6.121,4.085 9.706,4.317 3.22,0.208 3.2,-4.793 -10e-4,-5.001 z"
   id="path110" />
	</g>
<path
   fill="#a5d2b8"
   d="m 149.4355,40.34747 c 8.557,-5.995 16.723,-14.991 24.502,-23.39 2.723,-2.396 10.111,-8.997 13.611,-5.995 1.944,1.799 1.944,6.596 2.722,9.594 1.168,4.199 3.502,5.998 4.668,9.597 0.777,2.4 1.166,6.597 0,8.996 -1.945,4.199 -3.891,1.799 -6.611,1.198 -4.669,-1.198 -9.335,-2.396 -14.001,-2.396 -7.001,0 -15.558,0.597 -22.169,2.997"
   id="path111"
   style="fill:#a995ff;fill-opacity:1" /><g
   id="g112"
   transform="translate(-278.8125,-256.83853)">
		<path
   d="m 429.51,299.345 c 8.405,-6.056 15.517,-13.547 22.538,-21.113 2.736,-2.948 5.531,-5.523 9.004,-7.604 5.513,-3.303 4.941,6.276 6.36,9.5 1.854,4.209 4.434,7.246 4.573,12.068 0.113,3.906 -1.598,3.349 -4.181,2.579 -2.856,-0.85 -5.82,-1.44 -8.752,-1.954 -9.166,-1.605 -19.965,-0.405 -28.748,2.555 -3.038,1.024 -1.734,5.854 1.33,4.822 6.466,-2.181 13.194,-2.767 19.981,-2.898 3.883,-0.076 7.591,0.546 11.357,1.417 2.292,0.53 5.393,2.22 7.763,2.171 3.824,-0.079 5.934,-3.769 6.16,-7.313 0.376,-5.855 -1.942,-9.713 -4.597,-14.677 -2.038,-3.811 -0.549,-10.631 -4.677,-13.256 -3.756,-2.388 -7.877,-0.217 -11.176,1.985 -4.523,3.02 -7.996,7.159 -11.687,11.09 -5.508,5.864 -11.231,11.596 -17.774,16.31 -2.588,1.866 -0.096,6.206 2.526,4.318 z"
   id="path112" />
	</g>
<path
   fill="#a5d2b8"
   d="m 153.7115,41.54947 c 12.058,-6.6 24.114,-12.595 36.948,-14.394 2.722,-0.602 10.111,-1.8 11.668,2.396 1.165,4.8 -3.112,18.593 -4.279,22.19 -2.333,7.197 -4.276,16.193 -8.945,19.19 -4.666,3.002 -6.999,-1.198 -10.89,-5.396 -4.276,-5.398 -8.168,-10.796 -12.833,-14.992 -2.724,-1.798 -5.835,-3.598 -8.556,-5.396 -2.334,-1.8 -4.668,-6.601 -7.39,-7.197"
   id="path113"
   style="fill:#a995ff;fill-opacity:1" />
<path
   fill="#a5d2b8"
   d="m 45.9845,46.99247 c -7,2.045 -14.001,4.604 -21.002,6.139 -4.666,0.51 -9.723,0 -14,2.045 -6.223,2.047 -4.278,7.676 -1.556,13.305 3.11,5.626 4.278,11.254 6.222,17.904 5.057,15.349 18.669,11.77 21.391,-3.067 2.334,-12.28 7,-23.536 9.723,-35.303"
   id="path115"
   style="fill:#a995ff;fill-opacity:1" /><g
   id="g116"
   transform="translate(-278.8125,-256.83853)">
		<path
   d="m 324.132,301.42 c -8.218,2.447 -16.455,5.95 -25.09,6.353 -5.28,0.245 -11.946,0.915 -15.046,5.783 -2.697,4.238 0.857,10.688 2.823,14.433 3.386,6.449 3.869,13.959 7.174,20.429 4.211,8.242 14.385,9.522 20.067,2.106 4.135,-5.395 4.625,-12.366 6.322,-18.745 2.346,-8.812 5.474,-17.386 7.602,-26.26 0.752,-3.135 -4.068,-4.464 -4.82,-1.33 -2.851,11.883 -7.322,23.305 -9.724,35.303 -0.827,4.133 -2.599,8.992 -6.813,10.762 -4.205,1.766 -7.266,-2.305 -8.927,-5.555 -2.46,-4.813 -3.081,-10.743 -5.039,-15.808 -1.313,-3.396 -7.776,-12.164 -2.201,-14.465 5.077,-2.097 10.501,-1.237 15.75,-2.449 6.52,-1.506 12.845,-3.827 19.251,-5.734 3.082,-0.919 1.769,-5.745 -1.329,-4.823 z"
   id="path116" />
	</g>
<g
   id="g118"
   transform="translate(-278.8125,-256.83853)">
		<path
   d="m 323.725,309.542 c 8.988,-4.256 15.058,-12.635 23.833,-17.208 5.465,-2.849 13.045,-2.13 19.046,-2.71 6.799,-0.657 13.584,-1.272 20.419,-1.331 3.223,-0.027 3.226,-5.027 0,-5 -7.455,0.064 -14.854,0.793 -22.269,1.51 -5.955,0.576 -12.322,0.24 -17.967,2.434 -9.872,3.837 -16.072,13.483 -25.586,17.987 -2.912,1.38 -0.373,5.689 2.524,4.318 z"
   id="path117" />
	</g>
<g
   id="g120"
   transform="translate(-278.8125,-256.83853)">
		<path
   d="m 423.366,295.326 c -4.968,9.335 -20.976,7.413 -29.705,6.706 -6.778,-0.548 -13.455,-0.747 -20.255,-0.747 -7.479,0 -13.129,1.688 -20.106,4.285 -2.993,1.115 -1.698,5.949 1.33,4.822 3.751,-1.397 7.379,-3.005 11.3,-3.875 3.897,-0.864 8.573,-0.232 12.549,-0.232 7.938,0 15.785,1.086 23.711,1.198 8.995,0.127 20.745,-0.711 25.493,-9.634 1.513,-2.844 -2.802,-5.37 -4.317,-2.523 z"
   id="path119" />
	</g>
<g
   id="g122"
   transform="translate(-278.8125,-256.83853)">
		<path
   d="m 329.35,309.794 c 3.354,-1.27 7.798,2.768 10.354,4.571 3.862,2.725 7.108,4.444 11.607,5.932 5.139,1.699 10.09,2.62 15.514,2.62 4.672,0 12.488,-3.754 16.604,-1.381 2.798,1.613 5.315,-2.708 2.523,-4.318 -4.285,-2.47 -9.034,-0.897 -13.54,0.122 -7.266,1.644 -14.471,-0.111 -21.354,-2.388 -6.901,-2.281 -15.162,-12.96 -23.035,-9.98 -2.988,1.13 -1.694,5.965 1.327,4.822 z"
   id="path121" />
	</g>
<path
   fill="#81c999"
   d="m 16.4275,64.38647 c 5.055,0.512 12.443,-0.512 17.111,-3.07 0,3.07 -3.111,7.165 -3.889,10.746 -0.779,4.092 -0.389,8.697 -3.111,12.278 -2.334,-3.072 -0.389,-8.698 -1.557,-12.792 -1.555,-4.604 -6.611,-7.162 -10.5,-7.674"
   id="path123"
   style="fill:#8a6fff;fill-opacity:1" />
<path
   fill="#81c999"
   d="m 181.1165,43.94547 c 6.612,-2.998 14.392,-3.599 21.003,-5.398 -0.777,10.796 -2.334,10.796 -8.557,8.399 -5.055,-1.202 -10.111,-2.4 -14.778,-3.599"
   id="path124"
   style="fill:#8a6fff;fill-opacity:1" /><g
   id="g114"
   transform="translate(-278.8125,-256.83853)">
		<path
   d="m 433.786,300.546 c 12.188,-6.64 24.185,-11.975 37.9,-14.439 1.831,-0.329 6.919,-1.062 7.144,1.802 0.18,2.297 -0.374,4.675 -0.817,6.91 -0.842,4.244 -2.079,8.424 -3.385,12.546 -1.575,4.978 -2.813,10.146 -5.197,14.816 -4.638,9.083 -11.929,-3.24 -15.205,-7.404 -4.322,-5.495 -8.588,-9.491 -14.504,-13.149 -4.143,-2.562 -6.227,-7.48 -10.809,-9.249 -3.014,-1.162 -4.305,3.674 -1.33,4.822 2.616,1.009 4.253,4.722 6.287,6.554 3.373,3.038 7.764,4.514 11.03,7.798 5.814,5.846 9.853,14.68 17.025,18.984 4.8,2.881 9.617,-2.082 11.822,-5.832 3.224,-5.479 4.575,-12.279 6.418,-18.316 2.188,-7.173 8.855,-24.64 -3.876,-25.449 -15.583,-0.99 -31.852,8.112 -45.027,15.291 -2.831,1.54 -0.308,5.858 2.524,4.315 z"
   id="path114" />
	</g>
<path
   fill="#81c999"
   d="m 116.3765,28.95447 c 5.834,0 15.167,1.198 19.835,5.995 -2.335,8.398 -21.001,1.201 -26.058,4.199 1.168,-4.199 6.223,-2.998 6.611,-10.194"
   id="path125"
   style="fill:#8a6fff;fill-opacity:1" />
<path
   fill="#81c999"
   d="m 17.5935,39.82847 c 3.5,-4.605 9.723,0 6.611,5.114 -2.334,-1.533 -5.055,-4.603 -7.777,-5.626"
   id="path126"
   style="fill:#8a6fff;fill-opacity:1" />










































</svg>
